<?xml version="1.0" standalone="no"?>
<!DOCTYPE svg PUBLIC "-//W3C//DTD SVG 20010904//EN"
 "http://www.w3.org/TR/2001/REC-SVG-20010904/DTD/svg10.dtd">
<svg version="1.0" xmlns="http://www.w3.org/2000/svg"
 width="214.000000pt" height="240.000000pt" viewBox="0 0 214.000000 240.000000"
 preserveAspectRatio="xMidYMid meet">

<g transform="translate(0.000000,240.000000) scale(0.100000,-0.100000)"
fill="#000000" stroke="none">
<path d="M1245 2096 c-159 -53 -286 -127 -385 -226 -61 -61 -126 -151 -150
-209 -19 -48 -26 -37 -22 35 l4 67 -32 -19 c-43 -25 -120 -109 -153 -165 -15
-25 -40 -97 -57 -160 -16 -62 -38 -125 -48 -139 -41 -54 -80 -17 -83 78 -1 29
-4 52 -5 52 -11 0 -84 -175 -84 -202 0 -5 5 -6 11 -2 8 4 10 -9 8 -42 -3 -68
-1 -94 10 -94 5 0 14 14 20 31 6 17 15 28 21 24 5 -3 10 -1 10 4 0 6 9 2 20
-9 17 -17 19 -28 14 -89 -4 -38 -3 -100 1 -138 7 -66 7 -67 20 -38 11 24 14
26 14 10 1 -17 3 -17 11 -5 5 8 10 11 10 5 0 -5 5 -3 10 5 9 13 10 13 10 0 0
-13 1 -13 10 0 8 12 10 10 10 -10 1 -41 28 -157 45 -195 15 -30 20 -33 37 -24
11 6 26 8 34 5 11 -4 14 7 14 52 0 63 11 83 41 75 15 -4 19 -14 19 -47 1 -72
25 -151 37 -118 3 6 8 10 13 7 4 -2 10 8 13 25 6 27 9 28 42 23 20 -3 41 -1
49 6 11 9 15 1 20 -46 4 -32 15 -69 25 -82 17 -23 18 -23 32 -5 15 21 90 44
143 44 l33 0 5 74 c5 70 38 166 58 166 4 0 13 -21 19 -46 12 -48 53 -114 90
-148 21 -19 21 -19 22 0 0 11 3 14 6 6 4 -10 8 -10 21 0 13 11 15 11 8 -2 -6
-12 -5 -12 6 1 9 11 22 13 45 8 37 -7 83 -1 83 12 0 5 6 6 14 3 20 -8 31 51
22 118 -6 46 -5 50 8 38 14 -10 16 -10 17 6 1 11 1 24 0 29 0 6 16 10 37 11
20 0 54 4 74 8 l37 7 -5 102 c-5 80 -2 110 10 137 8 19 15 29 16 23 0 -7 7
-13 15 -13 8 0 15 6 15 13 0 7 3 8 8 2 13 -18 32 -15 32 4 0 11 5 23 10 26 6
3 10 0 10 -7 0 -10 2 -10 9 1 7 11 9 11 14 0 3 -9 6 -6 6 7 1 11 -15 76 -35
145 -23 78 -36 148 -37 190 -3 109 -44 61 -54 -63 -7 -87 -23 -99 -23 -18 0
34 -8 84 -19 114 -22 62 -83 156 -135 205 l-36 35 0 -61 c0 -67 -16 -163 -29
-176 -12 -12 -80 175 -98 268 -18 92 -8 187 26 268 11 26 17 47 13 47 -4 -1
-38 -11 -77 -24z m-373 -658 c-7 -7 -12 -8 -12 -2 0 14 12 26 19 19 2 -3 -1
-11 -7 -17z m616 -258 l0 -45 -9 40 c-4 22 -8 51 -8 65 0 23 1 23 9 5 5 -11 8
-40 8 -65z m-1103 20 c-3 -5 -12 -10 -18 -10 -7 0 -6 4 3 10 19 12 23 12 15 0z
m612 -57 c9 -48 8 -56 -18 -100 -16 -26 -32 -47 -36 -46 -13 3 -20 38 -12 61
6 16 5 22 -5 22 -33 0 -18 58 27 108 25 27 32 21 44 -45z m548 -31 c-23 -16
-66 -96 -79 -144 l-13 -52 -11 77 c-15 98 -15 98 3 91 8 -4 15 -2 15 4 0 5 12
10 26 10 14 0 31 5 37 11 6 6 16 11 22 11 6 0 7 -3 0 -8z m-195 -273 c0 -28 4
-48 9 -45 19 12 -2 -33 -25 -55 l-24 -22 0 31 c0 18 5 32 10 32 6 0 10 27 10
61 0 37 4 58 10 54 6 -3 10 -29 10 -56z"/>
<path d="M760 515 c0 -5 5 -17 10 -25 5 -8 10 -10 10 -5 0 6 -5 17 -10 25 -5
8 -10 11 -10 5z"/>
</g>
</svg>
